<?xml version="1.0" standalone="no"?>
<svg version="1.0" xmlns="http://www.w3.org/2000/svg"
 width="100" height="100" viewBox="0 0 1920.000000 1920.000000"
 preserveAspectRatio="xMidYMid meet">

<g transform="translate(0.000000,1920.000000) scale(0.100000,-0.100000)"
fill="#FFF" stroke="none">
<path d="M11330 14273 c-392 -40 -800 -187 -1130 -407 -192 -127 -429 -344
-554 -506 -32 -41 -67 -83 -78 -92 -18 -16 -82 -18 -936 -18 -964 0 -993 -1
-1167 -46 -661 -171 -1149 -728 -1225 -1399 -8 -72 -10 -685 -8 -2205 l3
-2105 27 -115 c53 -230 123 -397 245 -579 79 -119 240 -295 338 -371 l54 -42
3 -426 c4 -466 1 -446 67 -582 42 -88 159 -200 259 -248 120 -59 170 -64 539
-60 312 4 319 4 384 29 185 71 302 191 365 374 27 78 28 87 32 338 l4 257
1048 0 1048 0 4 -257 c4 -251 5 -260 32 -338 63 -183 180 -303 365 -374 65
-25 72 -25 384 -29 369 -4 419 1 539 60 100 48 217 160 259 248 66 136 63 116
67 582 l3 426 54 42 c30 23 101 90 158 149 217 225 359 495 429 816 22 99 22
113 25 1222 l4 1123 57 42 c197 146 430 380 560 560 235 329 374 663 444 1073
30 176 32 559 5 735 -62 395 -194 736 -406 1045 -135 198 -349 426 -531 567
-355 275 -774 447 -1220 503 -113 14 -446 19 -550 8z m509 -559 c340 -49 657
-183 921 -388 327 -254 578 -631 683 -1026 49 -184 61 -280 61 -500 0 -266
-29 -439 -111 -660 -127 -344 -355 -654 -643 -874 -246 -189 -519 -309 -840
-371 -132 -26 -447 -32 -590 -11 -510 74 -942 322 -1260 722 -383 480 -510
1125 -341 1725 100 355 321 697 604 937 282 239 634 398 988 446 143 19 397
20 528 0z m-2583 -1026 c-2 -7 -23 -69 -45 -138 -84 -259 -115 -462 -115 -750
0 -296 37 -523 130 -800 49 -147 164 -391 240 -510 146 -229 383 -495 574
-642 368 -283 763 -450 1218 -512 130 -18 461 -21 592 -6 169 20 376 65 504
109 33 12 61 21 63 21 1 0 3 -117 3 -260 l0 -260 -2820 0 -2820 0 0 1378 c0
1188 2 1390 15 1471 45 277 196 527 420 694 134 100 301 174 458 202 103 19
1591 21 1583 3z m3158 -4723 l0 -420 -28 -100 c-113 -410 -422 -706 -836 -799
l-95 -21 -1855 0 -1855 0 -95 21 c-207 47 -377 136 -525 276 -151 143 -255
317 -311 523 l-28 100 -4 408 c-2 225 -1 415 2 423 5 12 388 14 2818 12 l2813
-3 -1 -420z m-4809 -1870 c44 -8 151 -18 238 -21 l157 -7 0 -204 c0 -122 -4
-212 -10 -224 -10 -18 -24 -19 -263 -19 -184 0 -256 3 -265 12 -9 9 -12 79
-12 251 l0 240 38 -7 c20 -3 73 -13 117 -21z m4145 -213 c0 -172 -3 -241 -12
-250 -9 -9 -81 -12 -265 -12 -239 0 -253 1 -263 19 -6 12 -10 103 -10 225 l0
206 88 0 c106 0 274 16 357 34 33 7 70 14 83 15 l22 1 0 -238z"/>
<path d="M11472 13442 c-54 -23 -115 -79 -144 -134 l-23 -43 0 -770 c0 -738 1
-772 19 -810 12 -26 161 -183 415 -438 443 -445 452 -452 571 -452 157 1 270
115 270 271 0 119 -7 128 -389 509 l-341 340 0 660 c0 424 -4 673 -10 697 -15
53 -67 117 -123 152 -62 38 -177 47 -245 18z"/>
<path d="M7535 7908 c-80 -29 -150 -101 -175 -181 -18 -57 -9 -153 20 -211 27
-53 61 -85 124 -119 40 -22 50 -22 456 -25 462 -3 473 -2 550 59 133 105 137
313 8 423 -75 65 -85 66 -542 65 -264 0 -422 -4 -441 -11z"/>
<path d="M10764 7904 c-60 -21 -119 -76 -150 -139 -71 -147 0 -321 156 -379
40 -15 91 -17 465 -14 l420 3 54 30 c93 51 141 133 141 240 0 74 -25 138 -73
188 -83 84 -66 82 -547 84 -353 1 -432 -1 -466 -13z"/>
</g>
</svg>