<?xml version="1.0" standalone="no"?>
<svg version="1.0" xmlns="http://www.w3.org/2000/svg"
     width="48.000000pt" height="47.000000pt" viewBox="0 0 2048.000000 2047.000000"
     preserveAspectRatio="xMidYMid meet">

    <circle cx="1024" cy="1023.5" r="900" fill="white" stroke="none"/>
    <g transform="translate(0.000000,2047.000000) scale(0.100000,-0.100000)"
       fill="#497824" stroke="none">
        <path d="M9855 20459 c-1717 -63 -3394 -559 -4860 -1437 -577 -345 -1055 -697
-1585 -1166 -185 -164 -676 -658 -841 -846 -994 -1135 -1698 -2394 -2126
-3800 -550 -1812 -583 -3793 -93 -5622 387 -1445 1104 -2816 2064 -3948 264
-311 721 -782 996 -1026 1265 -1124 2736 -1904 4341 -2305 1566 -390 3228
-406 4792 -44 1543 356 2957 1052 4193 2062 334 274 854 771 1130 1083 769
866 1360 1795 1802 2835 930 2188 1062 4677 368 6968 -396 1306 -1060 2530
-1945 3587 -353 421 -827 897 -1251 1256 -1449 1226 -3242 2034 -5115 2303
-632 91 -1238 123 -1870 100z m2685 -2269 c428 -18 740 -51 1045 -111 981
-194 1636 -671 2042 -1487 291 -582 439 -1224 515 -2227 9 -121 13 -1290 15
-4762 l3 -4603 -685 0 -685 0 0 -419 c0 -985 -58 -1263 -282 -1367 l-63 -29
-330 0 c-380 0 -397 3 -485 82 -83 74 -126 177 -159 375 -30 182 -41 381 -48
895 l-6 463 -3177 0 -3177 0 -6 -463 c-4 -254 -11 -532 -17 -617 -25 -368 -79
-554 -190 -653 -88 -79 -105 -82 -485 -82 l-330 0 -63 29 c-102 47 -163 130
-206 278 -56 195 -76 472 -76 1081 l0 427 -685 0 -685 0 3 4607 c2 3518 6
4645 16 4763 47 596 105 988 203 1375 81 320 174 573 311 847 222 446 509 780
887 1033 526 351 1193 525 2165 564 288 12 4348 13 4635 1z"/>
        <path d="M7835 17261 c-85 -25 -141 -56 -201 -112 -94 -90 -138 -241 -115
-396 26 -174 114 -279 287 -345 l59 -23 2375 0 2375 0 59 23 c86 32 136 64
185 117 56 60 88 132 102 228 30 200 -51 381 -209 465 -125 67 63 62 -2518 61
-2196 0 -2343 -1 -2399 -18z"/>
        <path d="M6493 14999 c-307 -52 -519 -368 -636 -949 -113 -561 -151 -1190
-164 -2751 l-6 -829 4551 0 4552 0 0 423 c0 536 -17 1534 -30 1827 -36 790
-104 1299 -224 1662 -109 331 -261 523 -476 600 l-65 23 -3725 1 c-2061 1
-3748 -2 -3777 -7z"/>
        <path d="M6443 8626 c-404 -77 -695 -387 -744 -792 -50 -420 216 -832 621
-962 248 -80 523 -48 752 88 84 51 204 162 264 247 219 306 224 723 13 1034
-122 180 -313 315 -524 370 -103 26 -284 34 -382 15z"/>
        <path d="M13723 8626 c-340 -65 -604 -298 -706 -622 -85 -268 -36 -569 127
-798 59 -83 182 -197 267 -247 226 -135 502 -167 749 -87 271 87 488 302 579
573 169 505 -130 1043 -650 1170 -90 22 -278 28 -366 11z"/>
    </g>
</svg>